<svg xmlns="http://www.w3.org/2000/svg" xmlns:xlink="http://www.w3.org/1999/xlink" width="500" zoomAndPan="magnify" viewBox="0 0 375 374.999991" height="500" preserveAspectRatio="xMidYMid meet" version="1.0"><defs><g/></defs><rect x="-37.5" width="450" fill="#ffffff" y="-37.499999" height="449.999989" fill-opacity="1"/><rect x="-37.5" width="450" fill="#fffcf5" y="-37.499999" height="449.999989" fill-opacity="1"/><path stroke-linecap="butt" transform="matrix(0.75, 0, 0, 0.75, 51.035502, 21.650252)" fill="none" stroke-linejoin="miter" d="M 211.931845 82.383003 L 272.14539 82.383003 L 272.14539 87.148628 L 268.812057 87.148628 C 266.593307 87.148628 263.348515 88.14342 259.082889 90.138212 C 254.864139 92.091337 251.009972 94.877795 247.51518 98.508004 C 244.067263 102.091337 239.806846 108.013213 234.723513 116.268422 L 193.015177 181.929884 L 193.015177 225.205929 C 193.015177 235.820513 194.239135 242.461138 196.687052 245.138222 C 199.864136 248.633014 204.947469 250.377806 211.931845 250.377806 L 217.50997 250.377806 L 217.50997 255.143431 L 144.093299 255.143431 L 144.093299 250.377806 L 150.150591 250.377806 C 157.499549 250.377806 162.713091 248.200722 165.796425 243.846555 C 167.702675 241.08093 168.6558 234.867388 168.6558 225.205929 L 168.6558 184.310093 L 121.161005 111.981963 C 115.536005 103.497588 111.749546 98.190296 109.80163 96.060087 C 107.848504 93.929879 103.676629 91.388212 97.280795 88.440295 C 95.603712 87.575711 93.150587 87.148628 89.931837 87.148628 L 89.931837 82.383003 L 163.822466 82.383003 L 163.822466 87.148628 L 160.015175 87.148628 C 155.978716 87.148628 152.280799 88.075712 148.921424 89.935087 C 145.614132 91.794462 143.957882 94.586129 143.957882 98.304879 C 143.957882 101.388212 146.567257 106.898629 151.780799 114.841338 L 187.775593 170.633009 L 221.661012 117.221547 C 226.739137 109.284046 229.280804 103.341338 229.280804 99.393421 C 229.280804 97.08092 228.671429 94.992379 227.442262 93.133004 C 226.265179 91.273628 224.520387 89.820503 222.202679 88.778837 C 219.937054 87.690295 216.50997 87.148628 211.931845 87.148628 Z M 211.931845 82.383003 " stroke="#fffcf5" stroke-width="20.902725" stroke-opacity="1" stroke-miterlimit="4"/><g fill="#094e69" fill-opacity="1"><g transform="translate(116.238623, 239.900238)"><g><path d="M 93.765625 -156.46875 L 138.921875 -156.46875 L 138.921875 -152.890625 L 136.40625 -152.890625 C 134.738281 -152.890625 132.3125 -152.148438 129.125 -150.671875 C 125.9375 -149.203125 123.046875 -147.113281 120.453125 -144.40625 C 117.867188 -141.695312 114.664062 -137.238281 110.84375 -131.03125 L 79.546875 -81.828125 L 79.546875 -49.328125 C 79.546875 -41.367188 80.460938 -36.394531 82.296875 -34.40625 C 84.679688 -31.769531 88.503906 -30.453125 93.765625 -30.453125 L 97.953125 -30.453125 L 97.953125 -26.875 L 42.875 -26.875 L 42.875 -30.453125 L 47.421875 -30.453125 C 52.910156 -30.453125 56.8125 -32.085938 59.125 -35.359375 C 60.5625 -37.429688 61.28125 -42.085938 61.28125 -49.328125 L 61.28125 -80.03125 L 25.6875 -134.265625 C 21.457031 -140.628906 18.609375 -144.609375 17.140625 -146.203125 C 15.671875 -147.796875 12.546875 -149.707031 7.765625 -151.9375 C 6.492188 -152.570312 4.660156 -152.890625 2.265625 -152.890625 L 2.265625 -156.46875 L 57.6875 -156.46875 L 57.6875 -152.890625 L 54.828125 -152.890625 C 51.796875 -152.890625 49.023438 -152.191406 46.515625 -150.796875 C 44.015625 -149.398438 42.765625 -147.3125 42.765625 -144.53125 C 42.765625 -142.21875 44.710938 -138.078125 48.609375 -132.109375 L 75.609375 -90.296875 L 101.046875 -130.3125 C 104.867188 -136.289062 106.78125 -140.75 106.78125 -143.6875 C 106.78125 -145.445312 106.320312 -147.019531 105.40625 -148.40625 C 104.488281 -149.800781 103.175781 -150.894531 101.46875 -151.6875 C 99.757812 -152.488281 97.191406 -152.890625 93.765625 -152.890625 Z M 93.765625 -156.46875 "/></g></g></g><path stroke-linecap="butt" transform="matrix(0.75, 0, 0, 0.75, 104.953526, 81.356985)" fill="none" stroke-linejoin="miter" d="M 101.37968 236.800077 L 39.582801 102.180277 L 39.582801 209.081325 C 39.582801 218.909451 40.650509 225.065701 42.791134 227.53966 C 45.650509 230.774035 50.228635 232.393827 56.52551 232.393827 L 62.259886 232.393827 L 62.259886 236.800077 L 6.572382 236.800077 L 6.572382 232.393827 L 12.176549 232.393827 C 18.936966 232.393827 23.749466 230.378202 26.603633 226.341743 C 28.369258 223.784451 29.249467 218.029243 29.249467 209.081325 L 29.249467 104.57611 C 29.249467 97.477151 28.473425 92.352151 26.916133 89.201109 C 25.702591 86.977151 23.619258 85.107359 20.681758 83.596942 C 17.744258 82.03965 13.035924 81.263609 6.572382 81.263609 L 6.572382 76.857358 L 51.801552 76.857358 L 109.884889 202.029242 L 166.957809 76.857358 L 212.249479 76.857358 L 212.249479 81.263609 L 206.770312 81.263609 C 199.884895 81.263609 195.009894 83.279234 192.155727 87.310484 C 190.520311 89.872984 189.697394 95.628193 189.697394 104.57611 L 189.697394 209.081325 C 189.697394 218.909451 190.770311 225.065701 192.910936 227.53966 C 195.853644 230.774035 200.473436 232.393827 206.770312 232.393827 L 212.249479 232.393827 L 212.249479 236.800077 L 144.280724 236.800077 L 144.280724 232.393827 L 150.009891 232.393827 C 156.775517 232.393827 161.541142 230.378202 164.311976 226.341743 C 166.077601 223.784451 166.957809 218.029243 166.957809 209.081325 L 166.957809 102.180277 L 105.34843 236.800077 Z M 101.37968 236.800077 " stroke="#fffcf5" stroke-width="19.35285" stroke-opacity="1" stroke-miterlimit="4"/><g fill="#32620e" fill-opacity="1"><g transform="translate(106.101964, 283.856972)"><g><path d="M 74.859375 -24.875 L 28.53125 -125.84375 L 28.53125 -45.671875 C 28.53125 -38.296875 29.34375 -33.6875 30.96875 -31.84375 C 33.101562 -29.414062 36.53125 -28.203125 41.25 -28.203125 L 45.5625 -28.203125 L 45.5625 -24.875 L 3.765625 -24.875 L 3.765625 -28.203125 L 7.96875 -28.203125 C 13.050781 -28.203125 16.660156 -29.710938 18.796875 -32.734375 C 20.128906 -34.648438 20.796875 -38.960938 20.796875 -45.671875 L 20.796875 -124.078125 C 20.796875 -129.378906 20.203125 -133.210938 19.015625 -135.578125 C 18.128906 -137.265625 16.582031 -138.679688 14.375 -139.828125 C 12.164062 -140.972656 8.628906 -141.546875 3.765625 -141.546875 L 3.765625 -144.859375 L 37.703125 -144.859375 L 81.28125 -50.984375 L 124.078125 -144.859375 L 158.015625 -144.859375 L 158.015625 -141.546875 L 153.921875 -141.546875 C 148.765625 -141.546875 145.117188 -140.035156 142.984375 -137.015625 C 141.722656 -135.097656 141.09375 -130.785156 141.09375 -124.078125 L 141.09375 -45.671875 C 141.09375 -38.296875 141.90625 -33.6875 143.53125 -31.84375 C 145.738281 -29.414062 149.203125 -28.203125 153.921875 -28.203125 L 158.015625 -28.203125 L 158.015625 -24.875 L 107.046875 -24.875 L 107.046875 -28.203125 L 111.359375 -28.203125 C 116.441406 -28.203125 120.015625 -29.710938 122.078125 -32.734375 C 123.410156 -34.648438 124.078125 -38.960938 124.078125 -45.671875 L 124.078125 -125.84375 L 77.84375 -24.875 Z M 74.859375 -24.875 "/></g></g></g><g fill="#f3fadc" fill-opacity="1"><g transform="translate(61.580995, 288.741132)"><g><path d="M 7.0625 -4.828125 L 7.0625 0 L 5.609375 0 L 5.609375 -4.828125 L 0.015625 -13.96875 L 1.59375 -13.96875 L 6.390625 -6.125 L 11.171875 -13.96875 L 12.65625 -13.96875 Z M 7.0625 -4.828125 "/></g></g></g><g fill="#f3fadc" fill-opacity="1"><g transform="translate(80.321293, 288.741132)"><g><path d="M 8.375 0.125 C 7 0.125 5.75 -0.179688 4.625 -0.796875 C 3.5 -1.421875 2.617188 -2.269531 1.984375 -3.34375 C 1.347656 -4.425781 1.03125 -5.640625 1.03125 -6.984375 C 1.03125 -8.328125 1.347656 -9.535156 1.984375 -10.609375 C 2.617188 -11.691406 3.5 -12.539062 4.625 -13.15625 C 5.75 -13.78125 7 -14.09375 8.375 -14.09375 C 9.757812 -14.09375 11.003906 -13.785156 12.109375 -13.171875 C 13.222656 -12.554688 14.097656 -11.707031 14.734375 -10.625 C 15.378906 -9.539062 15.703125 -8.328125 15.703125 -6.984375 C 15.703125 -5.640625 15.378906 -4.425781 14.734375 -3.34375 C 14.097656 -2.257812 13.222656 -1.410156 12.109375 -0.796875 C 11.003906 -0.179688 9.757812 0.125 8.375 0.125 Z M 8.375 -1.203125 C 9.476562 -1.203125 10.472656 -1.445312 11.359375 -1.9375 C 12.253906 -2.4375 12.953125 -3.128906 13.453125 -4.015625 C 13.960938 -4.898438 14.21875 -5.890625 14.21875 -6.984375 C 14.21875 -8.078125 13.960938 -9.066406 13.453125 -9.953125 C 12.953125 -10.835938 12.253906 -11.523438 11.359375 -12.015625 C 10.472656 -12.515625 9.476562 -12.765625 8.375 -12.765625 C 7.269531 -12.765625 6.269531 -12.515625 5.375 -12.015625 C 4.476562 -11.523438 3.773438 -10.835938 3.265625 -9.953125 C 2.753906 -9.066406 2.5 -8.078125 2.5 -6.984375 C 2.5 -5.890625 2.753906 -4.898438 3.265625 -4.015625 C 3.773438 -3.128906 4.476562 -2.4375 5.375 -1.9375 C 6.269531 -1.445312 7.269531 -1.203125 8.375 -1.203125 Z M 8.375 -1.203125 "/></g></g></g><g fill="#f3fadc" fill-opacity="1"><g transform="translate(103.132827, 288.741132)"><g><path d="M 6.125 0.125 C 5.082031 0.125 4.085938 -0.0390625 3.140625 -0.375 C 2.191406 -0.707031 1.457031 -1.148438 0.9375 -1.703125 L 1.515625 -2.828125 C 2.023438 -2.328125 2.695312 -1.921875 3.53125 -1.609375 C 4.363281 -1.296875 5.226562 -1.140625 6.125 -1.140625 C 7.375 -1.140625 8.3125 -1.367188 8.9375 -1.828125 C 9.5625 -2.285156 9.875 -2.878906 9.875 -3.609375 C 9.875 -4.171875 9.703125 -4.617188 9.359375 -4.953125 C 9.023438 -5.285156 8.609375 -5.539062 8.109375 -5.71875 C 7.617188 -5.894531 6.9375 -6.09375 6.0625 -6.3125 C 5.007812 -6.570312 4.171875 -6.820312 3.546875 -7.0625 C 2.921875 -7.3125 2.382812 -7.6875 1.9375 -8.1875 C 1.5 -8.695312 1.28125 -9.382812 1.28125 -10.25 C 1.28125 -10.957031 1.460938 -11.597656 1.828125 -12.171875 C 2.203125 -12.753906 2.773438 -13.21875 3.546875 -13.5625 C 4.316406 -13.914062 5.273438 -14.09375 6.421875 -14.09375 C 7.222656 -14.09375 8.003906 -13.976562 8.765625 -13.75 C 9.535156 -13.53125 10.195312 -13.226562 10.75 -12.84375 L 10.25 -11.671875 C 9.664062 -12.054688 9.039062 -12.34375 8.375 -12.53125 C 7.707031 -12.726562 7.054688 -12.828125 6.421875 -12.828125 C 5.203125 -12.828125 4.28125 -12.585938 3.65625 -12.109375 C 3.039062 -11.640625 2.734375 -11.035156 2.734375 -10.296875 C 2.734375 -9.734375 2.898438 -9.28125 3.234375 -8.9375 C 3.578125 -8.601562 4.003906 -8.347656 4.515625 -8.171875 C 5.023438 -7.992188 5.710938 -7.796875 6.578125 -7.578125 C 7.609375 -7.328125 8.4375 -7.078125 9.0625 -6.828125 C 9.695312 -6.585938 10.234375 -6.21875 10.671875 -5.71875 C 11.109375 -5.21875 11.328125 -4.539062 11.328125 -3.6875 C 11.328125 -2.988281 11.140625 -2.347656 10.765625 -1.765625 C 10.390625 -1.179688 9.804688 -0.71875 9.015625 -0.375 C 8.234375 -0.0390625 7.269531 0.125 6.125 0.125 Z M 6.125 0.125 "/></g></g></g><g fill="#f3fadc" fill-opacity="1"><g transform="translate(121.473977, 288.741132)"><g><path d="M 12.15625 -1.28125 L 12.15625 0 L 2.28125 0 L 2.28125 -13.96875 L 11.859375 -13.96875 L 11.859375 -12.6875 L 3.75 -12.6875 L 3.75 -7.71875 L 10.96875 -7.71875 L 10.96875 -6.46875 L 3.75 -6.46875 L 3.75 -1.28125 Z M 12.15625 -1.28125 "/></g></g></g><g fill="#f3fadc" fill-opacity="1"><g transform="translate(140.892808, 288.741132)"><g><path d="M 7.5 -13.96875 C 9.28125 -13.96875 10.675781 -13.539062 11.6875 -12.6875 C 12.695312 -11.832031 13.203125 -10.660156 13.203125 -9.171875 C 13.203125 -7.679688 12.695312 -6.515625 11.6875 -5.671875 C 10.675781 -4.828125 9.28125 -4.40625 7.5 -4.40625 L 3.75 -4.40625 L 3.75 0 L 2.28125 0 L 2.28125 -13.96875 Z M 7.46875 -5.703125 C 8.84375 -5.703125 9.894531 -6.003906 10.625 -6.609375 C 11.363281 -7.210938 11.734375 -8.066406 11.734375 -9.171875 C 11.734375 -10.304688 11.363281 -11.175781 10.625 -11.78125 C 9.894531 -12.382812 8.84375 -12.6875 7.46875 -12.6875 L 3.75 -12.6875 L 3.75 -5.703125 Z M 7.46875 -5.703125 "/></g></g></g><g fill="#f3fadc" fill-opacity="1"><g transform="translate(161.289538, 288.741132)"><g><path d="M 13.953125 -13.96875 L 13.953125 0 L 12.484375 0 L 12.484375 -6.4375 L 3.75 -6.4375 L 3.75 0 L 2.28125 0 L 2.28125 -13.96875 L 3.75 -13.96875 L 3.75 -7.734375 L 12.484375 -7.734375 L 12.484375 -13.96875 Z M 13.953125 -13.96875 "/></g></g></g><g fill="#444342" fill-opacity="1"><g transform="translate(183.584893, 288.741132)"><g/></g></g><g fill="#f3fadc" fill-opacity="1"><g transform="translate(194.881768, 288.741132)"><g><path d="M 16.78125 -13.96875 L 16.78125 0 L 15.359375 0 L 15.359375 -11.171875 L 9.875 -1.78125 L 9.171875 -1.78125 L 3.6875 -11.109375 L 3.6875 0 L 2.28125 0 L 2.28125 -13.96875 L 3.484375 -13.96875 L 9.5625 -3.609375 L 15.5625 -13.96875 Z M 16.78125 -13.96875 "/></g></g></g><g fill="#f3fadc" fill-opacity="1"><g transform="translate(220.008328, 288.741132)"><g><path d="M 12.15625 -1.28125 L 12.15625 0 L 2.28125 0 L 2.28125 -13.96875 L 11.859375 -13.96875 L 11.859375 -12.6875 L 3.75 -12.6875 L 3.75 -7.71875 L 10.96875 -7.71875 L 10.96875 -6.46875 L 3.75 -6.46875 L 3.75 -1.28125 Z M 12.15625 -1.28125 "/></g></g></g><g fill="#f3fadc" fill-opacity="1"><g transform="translate(239.42716, 288.741132)"><g><path d="M 6.609375 -6.5625 L 3.75 -3.671875 L 3.75 0 L 2.28125 0 L 2.28125 -13.96875 L 3.75 -13.96875 L 3.75 -5.53125 L 11.953125 -13.96875 L 13.640625 -13.96875 L 7.609375 -7.640625 L 14.0625 0 L 12.3125 0 Z M 6.609375 -6.5625 "/></g></g></g><g fill="#f3fadc" fill-opacity="1"><g transform="translate(259.684191, 288.741132)"><g><path d="M 2.28125 -13.96875 L 7.96875 -13.96875 C 9.4375 -13.96875 10.734375 -13.671875 11.859375 -13.078125 C 12.992188 -12.484375 13.875 -11.65625 14.5 -10.59375 C 15.125 -9.539062 15.4375 -8.335938 15.4375 -6.984375 C 15.4375 -5.628906 15.125 -4.421875 14.5 -3.359375 C 13.875 -2.304688 12.992188 -1.484375 11.859375 -0.890625 C 10.734375 -0.296875 9.4375 0 7.96875 0 L 2.28125 0 Z M 7.875 -1.28125 C 9.101562 -1.28125 10.175781 -1.519531 11.09375 -2 C 12.007812 -2.488281 12.71875 -3.160156 13.21875 -4.015625 C 13.726562 -4.878906 13.984375 -5.867188 13.984375 -6.984375 C 13.984375 -8.097656 13.726562 -9.082031 13.21875 -9.9375 C 12.71875 -10.800781 12.007812 -11.472656 11.09375 -11.953125 C 10.175781 -12.441406 9.101562 -12.6875 7.875 -12.6875 L 3.75 -12.6875 L 3.75 -1.28125 Z M 7.875 -1.28125 "/></g></g></g><g fill="#f3fadc" fill-opacity="1"><g transform="translate(282.236289, 288.741132)"><g><path d="M 2.28125 -13.96875 L 3.75 -13.96875 L 3.75 0 L 2.28125 0 Z M 2.28125 -13.96875 "/></g></g></g><g fill="#f3fadc" fill-opacity="1"><g transform="translate(294.330874, 288.741132)"><g><path d="M 16.78125 -13.96875 L 16.78125 0 L 15.359375 0 L 15.359375 -11.171875 L 9.875 -1.78125 L 9.171875 -1.78125 L 3.6875 -11.109375 L 3.6875 0 L 2.28125 0 L 2.28125 -13.96875 L 3.484375 -13.96875 L 9.5625 -3.609375 L 15.5625 -13.96875 Z M 16.78125 -13.96875 "/></g></g></g></svg>