<svg xmlns="http://www.w3.org/2000/svg" xmlns:xlink="http://www.w3.org/1999/xlink" width="800" zoomAndPan="magnify" viewBox="0 0 600 599.999999" height="800" preserveAspectRatio="xMidYMid meet" version="1.0"><defs><g/></defs><rect x="-60" width="720" fill="#ffffff" y="-60" height="719.999999" fill-opacity="1"/><rect x="-60" width="720" fill="#000000" y="-60" height="719.999999" fill-opacity="1"/><g fill="#00bf63" fill-opacity="1"><g transform="translate(208.149644, 413.391542)"><g><path d="M 15.203125 0 L 15.203125 -3.953125 C 19.859375 -5.367188 23.046875 -8.40625 24.765625 -13.0625 C 26.492188 -17.726562 27.359375 -26.242188 27.359375 -38.609375 L 27.359375 -162.03125 C 27.359375 -173.570312 26.648438 -182.535156 25.234375 -188.921875 C 23.816406 -195.304688 21.738281 -199.914062 19 -202.75 C 16.257812 -205.59375 12.863281 -207.625 8.8125 -208.84375 L 8.8125 -212.796875 L 45.59375 -212.796875 L 124.9375 -81.765625 L 202.75 -212.796875 L 237.109375 -212.796875 L 237.109375 -208.84375 C 233.054688 -207.625 229.660156 -205.59375 226.921875 -202.75 C 224.191406 -199.914062 222.113281 -195.304688 220.6875 -188.921875 C 219.269531 -182.535156 218.5625 -173.570312 218.5625 -162.03125 L 218.5625 -38.609375 C 218.5625 -26.242188 219.421875 -17.726562 221.140625 -13.0625 C 222.867188 -8.40625 226.0625 -5.367188 230.71875 -3.953125 L 230.71875 0 L 181.484375 0 L 181.484375 -3.953125 C 186.140625 -5.367188 189.328125 -8.40625 191.046875 -13.0625 C 192.773438 -17.726562 193.640625 -26.242188 193.640625 -38.609375 L 193.640625 -188.171875 L 116.421875 -57.75 L 110.65625 -57.75 L 32.828125 -185.734375 L 32.828125 -50.765625 C 32.828125 -39.210938 33.632812 -30.296875 35.25 -24.015625 C 36.875 -17.734375 39.207031 -13.125 42.25 -10.1875 C 45.289062 -7.25 49.039062 -5.171875 53.5 -3.953125 L 53.5 0 Z M 15.203125 0 "/></g></g></g><g fill="#00bf63" fill-opacity="1"><g transform="translate(127.678772, 455.01653)"><g><path d="M 81.078125 0 L 81.078125 -5.578125 C 87.648438 -7.578125 92.148438 -11.863281 94.578125 -18.4375 C 97.015625 -25.019531 98.085938 -37.035156 97.796875 -54.484375 L 97.796875 -135.125 L 33.03125 -252.65625 C 24.738281 -267.8125 17.445312 -278.101562 11.15625 -283.53125 C 4.863281 -288.96875 -0.566406 -292.6875 -5.140625 -294.6875 L -5.140625 -300.265625 L 62.625 -300.265625 L 62.625 -294.6875 C 56.332031 -292.6875 54.1875 -288.96875 56.1875 -283.53125 C 58.195312 -278.101562 63.488281 -267.8125 72.0625 -252.65625 L 131.6875 -146.265625 L 191.734375 -252.65625 C 199.171875 -265.8125 202.890625 -275.75 202.890625 -282.46875 C 202.890625 -289.1875 198.742188 -293.257812 190.453125 -294.6875 L 190.453125 -300.265625 L 241.5 -300.265625 L 241.5 -294.6875 C 235.78125 -292.6875 229.488281 -288.96875 222.625 -283.53125 C 215.757812 -278.101562 208.039062 -267.8125 199.46875 -252.65625 L 133.828125 -135.984375 L 133.828125 -54.484375 C 133.828125 -37.035156 135.039062 -25.019531 137.46875 -18.4375 C 139.90625 -11.863281 144.410156 -7.578125 150.984375 -5.578125 L 150.984375 0 Z M 81.078125 0 "/></g></g></g></svg>